<svg width="20" height="20" viewBox="0 0 2000 2000" fill="none"  xmlns:xlink="http://www.w3.org/1999/xlink">
<path fill="#F8F9F9" opacity="1.000000" stroke="none" 
	d="
M55.000000,31.000000 
	C55.000000,37.577461 55.000000,44.154922 55.000000,51.000000 
	C50.653015,51.000000 46.300636,51.000000 41.418667,50.655098 
	C37.793560,48.548786 34.322884,47.219391 31.686174,44.929653 
	C27.182667,41.018780 18.365162,44.066010 16.832689,35.591640 
	C16.792604,35.369965 16.330046,35.178223 16.030348,35.056900 
	C11.023464,33.029949 6.011124,31.016476 1.000000,29.000000 
	C1.000000,24.975456 1.000000,20.950911 1.370524,16.468483 
	C2.980107,16.706745 4.549593,17.126492 5.402266,18.145842 
	C9.575995,23.135439 15.549770,24.728203 21.520473,27.109375 
	C23.989275,30.186518 26.159580,33.078072 28.225311,35.830296 
	C29.228395,33.529640 30.062101,31.645258 30.872889,29.751064 
	C31.977827,27.169668 33.065289,24.580790 34.534012,21.997681 
	C36.479752,22.708113 38.050358,23.419046 39.623951,24.123297 
	C44.748714,26.416847 49.874565,28.707954 55.000000,31.000000 
M35.721939,40.108009 
	C35.531540,39.573406 35.341141,39.038803 35.150742,38.504200 
	C34.873852,38.628300 34.596958,38.752399 34.320068,38.876495 
	C34.642963,39.427658 34.965858,39.978821 35.721939,40.108009 
z"/>
<path fill="#FEFEFE" opacity="1.000000" stroke="none" 
	d="
M55.000000,30.531342 
	C49.874565,28.707954 44.748714,26.416847 39.623951,24.123297 
	C38.050358,23.419046 36.479752,22.708113 34.460026,21.555317 
	C34.012272,18.140223 34.012272,15.170053 34.012272,12.199883 
	C33.328953,12.141118 32.645634,12.082352 31.962313,12.023586 
	C31.590857,13.681541 31.219400,15.339498 30.567705,16.998056 
	C29.913813,16.998299 29.540159,16.997938 29.090937,16.635220 
	C28.760561,14.482826 29.791784,11.504022 25.624193,13.002272 
	C24.779505,13.029447 24.297003,13.050403 23.536827,12.957122 
	C22.575174,12.707170 21.891195,12.571453 20.994034,12.106079 
	C19.121468,11.190634 17.488621,10.509932 15.797634,10.037200 
	C11.092055,8.721705 7.943192,5.949635 7.000000,1.000000 
	C22.909716,1.000000 38.819431,1.000000 55.000000,1.000000 
	C55.000000,10.685882 55.000000,20.374283 55.000000,30.531342 
z"/>
<path fill="#F4F6F5" opacity="1.000000" stroke="none" 
	d="
M1.000000,29.458069 
	C6.011124,31.016476 11.023464,33.029949 16.030348,35.056900 
	C16.330046,35.178223 16.792604,35.369965 16.832689,35.591640 
	C18.365162,44.066010 27.182667,41.018780 31.686174,44.929653 
	C34.322884,47.219391 37.793560,48.548786 40.944538,50.655098 
	C35.311958,51.000000 29.623919,51.000000 23.407749,50.647278 
	C19.679615,48.744789 16.494257,47.163815 13.275918,45.653103 
	C9.197963,43.738873 5.093202,41.881748 1.000001,40.000000 
	C1.000000,36.638714 1.000000,33.277424 1.000000,29.458069 
z"/>
<path fill="#FBFCFB" opacity="1.000000" stroke="none" 
	d="
M6.500528,1.000000 
	C7.943192,5.949635 11.092055,8.721705 15.797634,10.037200 
	C17.488621,10.509932 19.121468,11.190634 20.925285,12.538958 
	C21.120476,17.842257 21.171227,22.383020 21.221977,26.923782 
	C15.549770,24.728203 9.575995,23.135439 5.402266,18.145842 
	C4.549593,17.126492 2.980107,16.706745 1.370524,16.005301 
	C1.000000,10.999784 1.000000,5.999570 1.000000,1.000000 
	C2.748852,1.000000 4.374955,1.000000 6.500528,1.000000 
z"/>
<path fill="#F1F3F2" opacity="1.000000" stroke="none" 
	d="
M1.000001,40.482956 
	C5.093202,41.881748 9.197963,43.738873 13.275918,45.653103 
	C16.494257,47.163815 19.679615,48.744789 22.939812,50.647278 
	C15.771795,51.000000 8.543591,51.000000 1.000000,51.000000 
	C1.000000,47.661911 1.000000,44.313911 1.000001,40.482956 
z"/>
<path fill="#0B2839" opacity="1.000000" stroke="none" 
	d="
M21.520473,27.109375 
	C21.171227,22.383020 21.120476,17.842257 21.138470,12.868616 
	C21.891195,12.571453 22.575174,12.707170 23.590309,13.414759 
	C23.953287,17.473284 23.672449,21.005907 24.174938,24.423353 
	C24.368668,25.740904 26.342333,26.796738 27.505035,27.971813 
	C28.667850,26.799786 30.538906,25.782598 30.836500,24.421410 
	C31.353022,22.058851 30.896458,19.483545 30.847946,16.997454 
	C31.219400,15.339498 31.590857,13.681541 31.962313,12.023586 
	C32.645634,12.082352 33.328953,12.141118 34.012272,12.199883 
	C34.012272,15.170053 34.012272,18.140223 34.086258,21.552755 
	C33.065289,24.580790 31.977827,27.169668 30.872889,29.751064 
	C30.062101,31.645258 29.228395,33.529640 28.225311,35.830296 
	C26.159580,33.078072 23.989275,30.186518 21.520473,27.109375 
z"/>
<path fill="#F4F6F5" opacity="1.000000" stroke="none" 
	d="
M35.505348,40.318996 
	C34.965858,39.978821 34.642963,39.427658 34.320068,38.876495 
	C34.596958,38.752399 34.873852,38.628300 35.150742,38.504200 
	C35.341141,39.038803 35.531540,39.573406 35.505348,40.318996 
z"/>
<path fill="#FBFCFB" opacity="1.000000" stroke="none" 
	d="
M30.567707,16.998056 
	C30.896458,19.483545 31.353022,22.058851 30.836500,24.421410 
	C30.538906,25.782598 28.667850,26.799786 27.505035,27.971813 
	C26.342333,26.796738 24.368668,25.740904 24.174938,24.423353 
	C23.672449,21.005907 23.953287,17.473284 23.867985,13.528996 
	C24.297003,13.050403 24.779505,13.029447 25.625813,13.462219 
	C26.598444,17.272123 24.678453,21.265266 27.231575,24.131706 
	C27.752808,24.033632 28.274042,23.935556 28.795275,23.837482 
	C28.919020,21.557514 29.042763,19.277548 29.166506,16.997580 
	C29.540159,16.997938 29.913813,16.998299 30.567707,16.998056 
z"/>
<path fill="#0C2C3D" opacity="1.000000" stroke="none" 
	d="
M29.090937,16.635220 
	C29.042763,19.277548 28.919020,21.557514 28.795275,23.837482 
	C28.274042,23.935556 27.752808,24.033632 27.231575,24.131706 
	C24.678453,21.265266 26.598444,17.272123 25.987999,13.455999 
	C29.791784,11.504022 28.760561,14.482826 29.090937,16.635220 
z"/>
</svg>