<svg version="1.1" id="Layer_1" xmlns="http://www.w3.org/2000/svg" xmlns:xlink="http://www.w3.org/1999/xlink" x="0px" y="0px"
	 width="100%" viewBox="0 0 400 368" enable-background="new 0 0 400 368" xml:space="preserve">
<path fill="#000000" opacity="1.000000" stroke="none" 
	d="
M253.070618,146.974396 
	C253.085724,156.372162 252.789673,165.359726 253.176880,174.317764 
	C253.988846,193.101959 247.033798,208.004822 231.936615,219.206100 
	C225.109528,224.271439 219.170990,230.204697 218.100861,239.139908 
	C217.435120,244.698471 217.637253,250.365875 217.539291,255.985992 
	C217.462784,260.374542 217.523956,264.765533 217.523956,269.084167 
	C213.895081,269.792816 212.382446,267.316681 210.390930,266.072052 
	C204.603592,262.455109 198.964569,258.601532 193.246704,254.872452 
	C190.837540,253.301224 189.349564,251.331055 189.739014,248.259750 
	C191.399506,235.164917 184.624298,226.487885 174.709641,219.350204 
	C162.214142,210.354584 154.844772,198.165024 154.295059,182.733902 
	C153.627151,163.985016 153.867950,145.204575 153.644836,126.438637 
	C153.532562,116.995712 153.319839,107.553009 153.046371,98.113281 
	C152.857941,91.609161 157.776047,85.531288 163.725067,85.149239 
	C169.522644,84.776909 174.241730,90.044159 174.336212,97.185043 
	C174.685867,123.610550 174.967300,150.036942 175.319565,176.462418 
	C175.392929,181.965286 175.765106,187.397568 178.410065,192.472305 
	C184.083832,203.358307 196.577545,209.142288 209.291534,206.575653 
	C221.237305,204.164108 231.404617,192.887878 231.673218,180.976181 
	C231.999588,166.503601 231.702759,152.025406 231.239670,137.546753 
	C230.795044,123.645561 230.830078,109.725128 230.875122,95.813873 
	C230.896286,89.275429 235.886505,83.998764 241.468658,84.003319 
	C247.065109,84.007896 251.943848,88.784241 252.079666,95.202660 
	C252.399841,110.331497 252.366577,125.467621 252.529129,140.600220 
	C252.550446,142.585464 252.881409,144.567368 253.070618,146.974396 
z"/>
<path fill="#000000" opacity="1.000000" stroke="none" 
	d="
M194.331039,89.481705 
	C197.427841,85.157845 201.306778,83.875984 205.936447,85.350822 
	C210.860153,86.919319 213.049347,90.786850 213.146805,95.644768 
	C213.383423,107.440445 213.297806,119.242165 213.446991,131.040131 
	C213.591263,142.449921 213.823486,153.859116 214.100357,165.266541 
	C214.274994,172.462219 210.128601,177.695450 203.746216,178.106827 
	C198.796112,178.425888 193.500824,173.367676 193.165253,166.862335 
	C192.617599,156.245117 192.750885,145.593063 192.581818,134.955948 
	C192.385162,122.583427 192.235718,110.209557 191.920563,97.839966 
	C191.844574,94.858055 192.686722,92.289146 194.331039,89.481705 
z"/>
<path fill="#000000" opacity="1.000000" stroke="none" 
	d="
M110.190514,294.317657 
	C113.264099,304.848511 107.162262,313.593964 96.663910,314.149658 
	C92.845459,314.351715 89.013229,314.320770 85.186981,314.342651 
	C77.971634,314.383911 76.088898,312.603302 75.924194,305.268829 
	C75.763664,298.119995 75.777916,290.967194 75.724098,283.816071 
	C75.695305,279.989624 75.756523,276.161011 75.646606,272.337128 
	C75.527687,268.199982 77.545670,266.073486 81.566071,265.954681 
	C86.550797,265.807312 91.565033,265.526794 96.523972,265.888000 
	C105.224976,266.521729 112.096291,276.082184 108.808319,283.786285 
	C107.002380,288.017761 107.557274,290.812439 110.190514,294.317657 
M98.059662,302.966492 
	C101.552025,299.366577 100.913345,296.543854 96.189827,295.423584 
	C94.470673,295.015839 92.599159,295.268616 90.799133,295.179871 
	C87.641518,295.024200 86.417580,296.614319 86.328461,299.655823 
	C86.228508,303.067291 88.043121,303.936981 90.983009,303.715179 
	C93.105843,303.555023 95.232407,303.444427 98.059662,302.966492 
M94.185410,284.567535 
	C96.677078,283.930573 99.561020,283.090393 98.499977,279.851349 
	C97.001823,275.277893 92.733917,276.369873 89.225723,276.425598 
	C86.094185,276.475342 86.184143,278.891541 86.300568,281.073730 
	C86.584358,286.392731 90.990227,283.561981 94.185410,284.567535 
z"/>
<path fill="#000000" opacity="1.000000" stroke="none" 
	d="
M311.712219,277.730408 
	C322.080292,280.119934 328.521820,288.985565 326.679077,297.759888 
	C324.305573,309.061310 316.685791,313.471680 303.102539,311.188171 
	C301.404327,314.603851 303.835541,318.201416 302.757629,321.749023 
	C301.878448,324.642731 301.450256,327.428955 297.657104,327.186340 
	C294.111145,326.959534 292.874939,324.361084 292.747314,321.333252 
	C292.217438,308.759033 291.665924,296.181000 291.487000,283.599182 
	C291.418762,278.798370 294.719513,276.935638 299.278961,278.783051 
	C300.968719,279.467712 302.342194,279.666809 303.979462,278.861572 
	C306.271301,277.734406 308.762573,277.552246 311.712219,277.730408 
M314.505157,298.834747 
	C316.608612,295.608826 316.505951,292.484070 313.626617,289.865723 
	C311.777161,288.183899 309.675079,286.869507 306.877411,288.374908 
	C303.026245,290.447235 301.534027,294.438629 303.542847,297.943481 
	C305.912384,302.077759 309.283691,302.544189 314.505157,298.834747 
z"/>
<path fill="#000000" opacity="1.000000" stroke="none" 
	d="
M207.869263,311.885712 
	C204.905045,313.767487 202.747467,312.506531 200.792343,310.809937 
	C197.926102,308.322693 195.169815,305.708771 192.254135,303.046021 
	C190.691757,305.072845 191.538712,307.140045 191.266495,309.021240 
	C190.807678,312.191895 188.842392,313.938202 185.883865,313.790161 
	C183.084167,313.650055 181.550293,311.586548 181.378448,308.709686 
	C180.575134,295.261353 180.776398,281.797211 180.795135,268.337402 
	C180.799881,264.933655 181.712601,261.661377 185.868729,261.711456 
	C190.077423,261.762177 191.325348,264.825714 191.308807,268.604889 
	C191.282288,274.667419 191.301712,280.730133 191.301712,287.522797 
	C195.645050,285.614746 197.610275,282.655945 200.069336,280.324707 
	C202.440659,278.076660 205.080704,276.370758 207.911285,278.981232 
	C210.750732,281.599823 209.776276,284.704010 207.710159,287.499084 
	C207.316101,288.032196 206.860291,288.524048 206.399582,289.002777 
	C200.361557,295.276794 200.448853,295.199982 206.302811,302.095886 
	C208.596268,304.797546 212.682037,307.485107 207.869263,311.885712 
z"/>
<path fill="#000000" opacity="1.000000" stroke="none" 
	d="
M112.791748,296.029236 
	C114.278625,283.397400 123.195450,276.940674 134.753204,279.936768 
	C136.803375,280.468262 138.144440,279.890289 139.835388,279.081146 
	C143.672226,277.245087 147.139206,279.081573 147.366348,283.170013 
	C147.825729,291.438599 148.180023,299.721008 148.251236,308.000519 
	C148.301682,313.867279 144.885651,315.781433 139.903427,312.795105 
	C138.392380,311.889404 137.281143,311.934113 135.771729,312.385986 
	C123.752350,315.984467 114.294632,309.401917 112.791748,296.029236 
M123.694031,297.859924 
	C124.314407,298.832123 124.813599,299.914612 125.578659,300.755096 
	C127.604210,302.980499 130.201035,303.271881 132.882004,302.318390 
	C135.465103,301.399689 136.941681,299.290009 137.098175,296.654419 
	C137.256638,293.985931 135.795853,291.932617 133.472809,290.571533 
	C128.647873,287.744537 124.503647,290.480408 123.694031,297.859924 
z"/>
<path fill="#000000" opacity="1.000000" stroke="none" 
	d="
M263.059265,280.861267 
	C270.016754,276.531982 276.655334,276.628357 282.944489,281.185944 
	C288.952179,285.539551 291.555206,292.782440 289.796661,299.166260 
	C287.567474,307.258514 282.158478,311.732605 273.926331,312.947144 
	C268.627197,313.728912 261.304382,309.722717 258.160645,304.289337 
	C254.401535,297.792389 254.898438,290.144684 259.560638,284.207397 
	C260.473572,283.044800 261.673340,282.107422 263.059265,280.861267 
M267.962067,299.521423 
	C272.410187,302.828094 276.029297,302.555115 278.491364,298.727264 
	C280.685333,295.316223 279.737671,291.558075 276.188629,289.346710 
	C273.534698,287.693085 271.098999,288.313660 268.843842,290.047607 
	C265.608124,292.535583 265.806335,295.623627 267.962067,299.521423 
z"/>
<path fill="#000000" opacity="1.000000" stroke="none" 
	d="
M167.567902,278.624695 
	C171.258133,278.527191 174.218369,279.467896 176.762634,281.549042 
	C178.857071,283.262238 180.209610,285.344269 178.526505,288.022034 
	C177.007462,290.438782 174.720398,291.071716 172.008987,290.159729 
	C170.176636,289.543365 168.616486,288.195648 166.358658,288.877350 
	C162.251663,290.117340 159.402008,294.281799 160.447754,297.954285 
	C161.561951,301.867188 166.228989,304.443756 170.387527,303.377594 
	C172.116989,302.934174 173.681671,301.701294 175.635666,302.496826 
	C178.880997,303.818146 179.723175,308.129425 177.131348,310.697601 
	C173.731308,314.066589 169.179977,314.265656 164.992676,313.923096 
	C156.013947,313.188538 149.047836,303.883148 149.707870,294.347412 
	C150.311066,285.632935 158.085037,278.624237 167.567902,278.624695 
z"/>
<path fill="#000000" opacity="1.000000" stroke="none" 
	d="
M235.066742,280.008484 
	C238.431747,278.282898 237.806412,275.359802 238.084564,272.793823 
	C238.437469,269.538177 238.879196,266.093445 243.096588,265.993439 
	C247.325974,265.893158 248.075073,269.249023 248.286560,272.547943 
	C248.471512,275.432831 249.169098,277.678711 252.300522,278.664520 
	C254.801147,279.451752 255.953186,281.585663 255.975616,284.072632 
	C255.998123,286.572754 254.284500,287.943329 252.017410,288.572968 
	C249.351669,289.313416 247.824371,291.155365 248.478287,293.720551 
	C249.301453,296.949493 247.136032,301.396637 251.947067,303.170715 
	C254.747787,304.203491 256.786072,306.049530 255.699936,309.162598 
	C254.574036,312.389618 251.668869,313.415924 248.391815,313.071930 
	C241.913406,312.391907 237.262405,305.858612 238.018036,297.803589 
	C238.412903,293.594330 238.432343,290.191376 234.497208,287.314026 
	C232.038437,285.516235 232.723816,282.552399 235.066742,280.008484 
z"/>
<path fill="#000000" opacity="1.000000" stroke="none" 
	d="
M212.002716,293.575500 
	C209.415894,288.200073 211.206589,284.027374 214.924713,280.706757 
	C218.553421,277.466003 223.051392,276.994080 227.541245,278.779541 
	C230.920120,280.123291 233.349136,282.591736 231.876602,286.520477 
	C230.531876,290.108246 227.533936,289.369476 224.705444,288.317627 
	C223.797470,287.979980 222.832870,287.490631 221.793259,288.697021 
	C222.336441,290.910645 224.510498,290.590759 226.059433,291.108063 
	C230.942032,292.738922 234.907700,295.354950 235.337082,300.953247 
	C235.699524,305.678406 233.503586,309.367859 229.279907,311.558990 
	C224.325485,314.129242 219.333328,314.091461 214.666824,310.816223 
	C212.150864,309.050385 210.621490,306.636169 212.364624,303.550873 
	C214.100891,300.477722 216.640335,300.293396 219.577209,302.039368 
	C220.916077,302.835297 222.422043,304.036835 224.348618,301.793274 
	C220.385834,298.906067 214.643951,298.753204 212.002716,293.575500 
z"/>
<path fill="#000000" opacity="1.000000" stroke="none" 
	d="
M333.393768,271.413116 
	C336.791199,273.236694 337.229736,275.805908 336.070679,278.789825 
	C335.164856,281.121765 333.418243,281.975128 330.893829,281.525635 
	C328.233826,281.052032 326.769348,279.468140 326.289734,276.961090 
	C325.622925,273.475708 327.885437,271.614380 333.393768,271.413116 
z"/>
</svg>